<svg width="119" height="31" viewBox="0 0 119 31" fill="none" xmlns="http://www.w3.org/2000/svg">
<g clip-path="url(#clip0_280_3948)">
<path d="M40.656 7.3125C42.3271 7.3125 43.6168 7.69366 44.5731 8.50702C45.0232 8.8857 45.3802 9.36293 45.6163 9.90175C45.8523 10.4406 45.9612 11.0265 45.9344 11.6141C45.9602 12.4821 45.7086 13.3356 45.2163 14.0508C44.7079 14.7054 44.0178 15.1955 43.2322 15.4598C44.2285 15.5647 45.1436 16.0571 45.7802 16.8306C46.4168 17.6041 46.724 18.5968 46.6355 19.5946C46.6355 21.3167 46.0399 22.5588 44.8692 23.3722C43.8641 24.0528 42.454 24.3932 40.639 24.3932H32.8457V7.3125H40.656ZM35.4662 14.5545H39.9584C41.1529 14.5545 42.0003 14.3367 42.5379 13.9317C43.0757 13.5268 43.3275 12.8325 43.3275 11.9238C43.3275 11.0152 43.0655 10.4434 42.5379 10.0589C42.0105 9.67432 41.1529 9.46332 40.006 9.46332H35.4662V14.5545ZM35.4662 22.2253H40.2919C41.1831 22.2637 42.0701 22.0826 42.8749 21.6978C43.2495 21.4823 43.5573 21.1673 43.7639 20.7877C43.9705 20.408 44.0681 19.9787 44.0456 19.547C44.0456 18.5431 43.7326 17.8045 43.1369 17.3486C42.5414 16.8925 41.609 16.6679 40.3633 16.6679H35.4662V22.2253Z" fill="black"/>
<path d="M51.9451 12.0191V24.3727H49.4199V12.0191H51.9451ZM51.9451 9.84448H49.4199V7.3125H51.9518L51.9451 9.84448Z" fill="black"/>
<path d="M101.271 24.3712V12.0176H103.799V14.7095C104.258 13.321 105.644 12.0176 107.883 12.0176H108.73V14.5462H107.478C105.14 14.5462 103.782 15.4684 103.782 16.8569V24.3712H101.271Z" fill="black"/>
<path d="M97.3475 13.0469C96.4876 12.1393 95.1491 11.6855 93.3317 11.6855C91.8003 11.6855 90.5581 11.9476 89.6494 12.5193C89.1228 12.8391 88.6725 13.2701 88.3298 13.7821C87.9871 14.294 87.7603 14.8747 87.6654 15.4835L90.177 15.7013C90.2316 15.3824 90.3564 15.0794 90.5424 14.8146C90.7284 14.5498 90.9709 14.3295 91.2524 14.1699C91.8401 13.8585 92.5006 13.7104 93.1649 13.7411C95.0299 13.7411 95.9612 14.601 95.959 16.3207V16.4874H92.1167C90.3403 16.4874 88.9484 17.0966 87.965 18.3388C87.4485 18.9718 87.1682 19.7646 87.1719 20.5816C87.1719 22.6779 88.9961 24.3761 91.2557 24.3761C91.477 24.3761 92.1134 24.3522 92.4639 24.3046C92.5901 24.2872 92.7151 24.2622 92.8383 24.2298C93.3567 24.1429 93.8621 23.9909 94.3425 23.7771C94.9561 23.4607 95.5 23.0244 95.942 22.4942V24.3727H98.4774V16.4874C98.4706 14.9833 98.086 13.8228 97.3475 13.0469ZM95.9352 19.2679C95.8739 20.1255 95.4928 21.2009 94.7883 21.793C94.026 22.4397 93.1139 22.4363 92.0385 22.4363C91.4817 22.4615 90.9334 22.2931 90.4866 21.9598C90.2991 21.8283 90.1467 21.6528 90.0429 21.4488C89.9391 21.2446 89.887 21.0181 89.8911 20.7891C89.8911 19.3598 90.912 18.5669 92.9267 18.4273H95.9352V19.2679Z" fill="black"/>
<path d="M81.2975 7.3125L74.7907 21.5924L68.2871 7.3125H65.3604V24.3762H67.8957V12.0191L73.5246 24.3762H76.0566L81.6991 11.9919V24.3762H84.2345V7.3125H81.2975Z" fill="black"/>
<path d="M115.735 22.2216V14.5473H118.546V12.0188H115.735V8.57812H113.205V12.0188H110.919V14.5473H113.205V21.6941C113.205 23.331 114.131 24.3655 115.874 24.3655H118.546V22.2216H115.735Z" fill="black"/>
<path d="M59.6086 22.2216V14.5473H62.4196V12.0188H59.6086V8.57812H57.0834V12.0188H54.793V14.5473H57.0834V21.6941C57.0834 23.331 58.0057 24.3655 59.7515 24.3655H62.4196V22.2216H59.6086Z" fill="black"/>
<path d="M16.8581 22.3672H7.66602V23.1703H16.8581V22.3672Z" fill="black"/>
<path d="M9.96618 27.3633H3.07129V28.1665H9.96618V27.3633Z" fill="black"/>
<path d="M5.36193 22.3711H0.774414V23.1742H5.36193V22.3711Z" fill="black"/>
<path d="M16.8578 20.0469H9.96289V20.85H16.8578V20.0469Z" fill="black"/>
<path d="M7.65931 20.0469H3.0752V20.85H7.65931V20.0469Z" fill="black"/>
<path d="M16.8578 9.66211H5.36523V10.4653H16.8578V9.66211Z" fill="black"/>
<path d="M7.65881 6.99219H3.07129V7.79534H7.65881V6.99219Z" fill="black"/>
<path d="M22.9528 14.714V14.6937C23.7532 13.2956 24.1728 11.712 24.1695 10.1011C24.1662 8.49011 23.7403 6.90823 22.9342 5.51344C22.1282 4.11867 20.9702 2.95984 19.576 2.15274C18.1819 1.34563 16.6003 0.918517 14.9893 0.914062H5.36504V2.06434H15.0166C16.2529 2.06924 17.4714 2.35887 18.5776 2.91077C19.6839 3.46267 20.6482 4.26201 21.3957 5.24676C22.1431 6.23152 22.6537 7.37523 22.8877 8.58918C23.1217 9.80312 23.073 11.0547 22.7452 12.2467C22.9853 11.2156 22.9897 10.1436 22.758 9.11052C22.5264 8.07747 22.0646 7.11 21.4071 6.28015C20.7496 5.45031 19.9134 4.7795 18.9607 4.31767C18.008 3.85585 16.9634 3.61491 15.9048 3.6128H7.66561V4.76309H15.915C16.8394 4.7634 17.7507 4.98176 18.5749 5.40043C19.3991 5.81911 20.1129 6.42628 20.6583 7.17264C21.2037 7.919 21.5653 8.78349 21.7139 9.69588C21.8624 10.6083 21.7938 11.5429 21.5132 12.4237C21.6935 11.7441 21.7159 11.0322 21.5785 10.3427C21.441 9.65313 21.1475 9.00421 20.7204 8.44568C20.2933 7.88715 19.7439 7.43386 19.1144 7.12056C18.485 6.80725 17.7922 6.64227 17.0891 6.63824H9.94236V7.79874H17.055C17.6592 7.79986 18.2523 7.95922 18.7757 8.26095C19.2991 8.56268 19.7341 8.99624 20.0378 9.51847C20.3414 10.0407 20.5029 10.6333 20.5062 11.2374C20.5095 11.8415 20.3546 12.4359 20.0567 12.9614C19.0287 12.5792 17.9409 12.3832 16.844 12.3829H7.6554V13.5331H16.844C18.7184 13.5334 20.5339 14.1876 21.9776 15.3829C23.4214 16.578 24.403 18.2396 24.7531 20.0808C24.4038 18.5601 23.5494 17.2025 22.3294 16.2297C21.1093 15.2569 19.5956 14.7262 18.0351 14.7242H5.36165V15.8643H18.0522C19.4303 15.8689 20.7609 16.3689 21.8011 17.2729C22.8412 18.1769 23.5217 19.4248 23.7185 20.7887C23.5244 19.7321 22.9666 18.7768 22.1416 18.0886C21.3167 17.4004 20.2768 17.0229 19.2024 17.0214H5.36845V18.1717H19.1991C20.1134 18.1717 20.9903 18.5349 21.6368 19.1814C22.2833 19.8279 22.6465 20.7048 22.6465 21.6192C22.6465 22.5334 22.2833 23.4103 21.6368 24.0568C20.9903 24.7033 20.1134 25.0666 19.1991 25.0666H3.07129V26.2169H19.2024C20.2768 26.2155 21.3167 25.8379 22.1416 25.1497C22.9666 24.4615 23.5244 23.5061 23.7185 22.4495C23.5191 23.8146 22.8351 25.0623 21.7916 25.9646C20.748 26.8669 19.4147 27.3635 18.0351 27.3638H12.2497V28.514H18.0351C19.5338 28.512 20.991 28.0225 22.1869 27.1194C23.3828 26.2164 24.2525 24.9487 24.6646 23.5079C24.234 25.2533 23.2319 26.8046 21.8177 27.9147C20.4037 29.0247 18.6588 29.6298 16.8611 29.6337H5.37866V30.784H16.844C18.7138 30.793 20.5417 30.2314 22.084 29.1741C23.6261 28.1169 24.8091 26.6143 25.4748 24.8671C26.1405 23.1199 26.2575 21.2112 25.8098 19.3958C25.3622 17.5804 24.3714 15.9448 22.9698 14.7073L22.9528 14.714Z" fill="black"/>
</g>
<defs>
<clipPath id="clip0_280_3948">
<rect width="117.978" height="30" fill="white" transform="translate(0.672852 0.808594)"/>
</clipPath>
</defs>
</svg>
