<svg width="68" height="35" viewBox="0 0 68 35" fill="none" xmlns="http://www.w3.org/2000/svg">
<path d="M61.0322 24.3322V22.9616H67.3276V21.9277H61.0322V20.6547H67.3276V19.6207H59.4803V25.3662H67.2439L67.5308 24.3322H61.0303H61.0322ZM16.218 24.3322V19.6207H14.666V25.3662H21.7164L22.1507 24.3322H16.216H16.218ZM25.4099 19.6227V25.3682H26.9618V23.4477H31.9762C33.8389 23.4477 34.562 22.6688 34.562 21.5113C34.562 20.3538 33.7751 19.6227 32.0499 19.6227H25.4099ZM53.1033 19.6227V23.1688L46.6845 19.6227H45.1166V25.3682H46.553V21.1248L54.5556 25.5315V19.6227H53.1033ZM40.192 19.6227H38.64V25.3682H40.192V19.6227ZM26.9618 20.6566H31.6734C32.6097 20.6566 32.8966 20.9435 32.8966 21.5511C32.8966 22.085 32.4941 22.4118 31.6813 22.4118H26.9618V20.6566ZM5.90837 21.33L7.60771 23.2425H4.20904L5.90837 21.33ZM9.50427 25.3682H11.3351L5.91037 19.4414L0.483643 25.3682H2.31446L3.28267 24.2764H8.53607L9.50427 25.3682Z" fill="black"/>
<path d="M30.1057 12.3771H28.6056V10.8929H30.1057C30.4344 10.8929 30.7014 11.2256 30.7014 11.636C30.7014 12.0464 30.4344 12.3791 30.1057 12.3791M28.5956 6.96828H29.5837C29.8786 6.96828 30.1176 7.27309 30.1176 7.64961C30.1176 8.02614 29.8786 8.33293 29.5837 8.33293H28.5956V6.96828ZM32.4465 9.39278C33.2016 8.92063 33.7036 8.08192 33.7036 7.12567C33.7036 5.64945 32.5063 4.45215 31.0301 4.45215H25.4998V14.6063H31.5739C33.0541 14.6063 34.2534 13.407 34.2534 11.9268C34.2534 10.7534 33.4984 9.75535 32.4465 9.39278Z" fill="black"/>
<path d="M45.5489 4.4502L43.9751 8.92465L42.7798 4.4502H39.9987L38.8054 8.92465L37.2316 4.4502H33.4783L37.0224 14.6044H40.0764L41.3893 9.66375L42.7021 14.6044H45.7581L49.3002 4.4502H45.5489Z" fill="black"/>
<path d="M56.0303 4.4502H49.7369L48.5974 7.72336H50.4023V14.6044H54.0959V7.72336H56.0303V4.4502Z" fill="black"/>
<path d="M22.986 9.52864C22.986 12.5667 20.5236 15.0291 17.4855 15.0291C14.4475 15.0291 11.9851 12.5667 11.9851 9.52864V0L13.6247 0.948282V9.52864C13.6247 11.6603 15.3519 13.3895 17.4855 13.3895C19.6192 13.3895 21.3464 11.6603 21.3464 9.52864C21.3464 8.79153 21.1392 8.10024 20.7806 7.51454C20.4499 6.97665 19.9937 6.52641 19.4498 6.20368L19.396 6.1718L16.6747 4.60196V2.70738L20.2368 4.76332C21.8803 5.7136 22.988 7.49262 22.988 9.52864" fill="black"/>
<path d="M20.8761 9.52821C20.8761 11.4009 19.3581 12.9189 17.4854 12.9189C15.6128 12.9189 14.0947 11.4009 14.0947 9.52821V1.2168L15.7343 2.16309V9.52622C15.7343 10.4924 16.5172 11.2774 17.4854 11.2774C18.4536 11.2774 19.2346 10.4944 19.2346 9.52622C19.2346 8.87875 18.882 8.31297 18.358 8.01016H18.354L16.6706 7.03598V5.14141L17.5811 5.66735L19.1549 6.57578L19.1768 6.58774L19.1927 6.5977C20.1968 7.18539 20.8722 8.27711 20.8722 9.52622" fill="black"/>
<path d="M7.67601 30.047H9.53273C9.54468 30.047 9.55663 30.0589 9.55663 30.0709V30.4673C9.55663 30.4793 9.54468 30.4912 9.53273 30.4912H8.12026C8.12026 30.4912 8.10831 30.4972 8.10831 30.5032V31.9017C8.10831 31.9017 8.11429 31.9136 8.12026 31.9136H9.47097C9.48292 31.9136 9.49487 31.9256 9.49487 31.9375V32.334C9.49487 32.3459 9.48292 32.3579 9.47097 32.3579H8.12026C8.12026 32.3579 8.10831 32.3639 8.10831 32.3698V34.4377C8.10831 34.4497 8.09636 34.4616 8.0844 34.4616H7.67601C7.66405 34.4616 7.6521 34.4497 7.6521 34.4377V30.0669C7.6521 30.0549 7.66405 30.043 7.67601 30.043" fill="black"/>
<path d="M12.3653 32.9961V31.5218C12.3653 30.7548 12.0804 30.4062 11.6282 30.4062C11.1759 30.4062 10.8911 30.7529 10.8911 31.5218V32.9961C10.8911 33.7631 11.1759 34.1117 11.6282 34.1117C12.0804 34.1117 12.3653 33.765 12.3653 32.9961ZM10.4329 32.9702V31.5457C10.4329 30.4998 10.897 29.96 11.6282 29.96C12.3593 29.96 12.8235 30.4799 12.8235 31.5198V32.9941C12.8235 34.034 12.3593 34.5539 11.6282 34.5539C10.897 34.5539 10.4329 34.0141 10.4329 32.9682" fill="black"/>
<path d="M14.3595 32.1785H14.8556C15.3457 32.1785 15.6305 31.8877 15.6305 31.3298C15.6305 30.772 15.3696 30.4931 14.9173 30.4931H14.3595C14.3595 30.4931 14.3476 30.4991 14.3476 30.5051V32.1646C14.3476 32.1646 14.3535 32.1765 14.3595 32.1765M13.9133 30.0469H14.9153C15.6285 30.0469 16.0848 30.517 16.0848 31.3279C16.0848 31.9414 15.8258 32.3558 15.3795 32.5291C15.3735 32.5351 15.3735 32.5411 15.3735 32.5471L16.1903 34.4357C16.1963 34.4476 16.1903 34.4655 16.1724 34.4655H15.7202C15.7082 34.4655 15.7023 34.4596 15.6963 34.4476L14.9153 32.6327C14.9153 32.6327 14.9034 32.6208 14.8974 32.6208H14.3595C14.3595 32.6208 14.3476 32.6268 14.3476 32.6327V34.4416C14.3476 34.4536 14.3356 34.4655 14.3237 34.4655H13.9153C13.9033 34.4655 13.8914 34.4536 13.8914 34.4416V30.0708C13.8914 30.0588 13.9033 30.0469 13.9153 30.0469" fill="black"/>
<path d="M18.4155 34.4455L17.6405 30.6564H17.6286V34.4455C17.6286 34.4575 17.6166 34.4695 17.6047 34.4695H17.1963C17.1843 34.4695 17.1724 34.4575 17.1724 34.4455V30.0747C17.1724 30.0627 17.1843 30.0508 17.1963 30.0508H17.9712C17.9832 30.0508 18.0011 30.0627 18.0011 30.0747L18.6884 33.6347C18.6884 33.6467 18.7004 33.6467 18.7004 33.6347L19.3937 30.0747C19.3937 30.0627 19.4116 30.0508 19.4235 30.0508H20.1925C20.2045 30.0508 20.2164 30.0627 20.2164 30.0747V34.4455C20.2164 34.4575 20.2045 34.4695 20.1925 34.4695H19.7841C19.7722 34.4695 19.7602 34.4575 19.7602 34.4455V30.6863H19.7483L18.9813 34.4455C18.9813 34.4575 18.9633 34.4695 18.9494 34.4695H18.4474C18.4354 34.4695 18.4155 34.4575 18.4155 34.4455Z" fill="black"/>
<path d="M21.2845 33.2603V30.0708C21.2845 30.0588 21.2965 30.0469 21.3084 30.0469H21.7168C21.7288 30.0469 21.7407 30.0588 21.7407 30.0708V33.2603C21.7407 33.7683 21.9818 34.1089 22.4459 34.1089C22.9101 34.1089 23.1512 33.7683 23.1512 33.2603V30.0708C23.1512 30.0588 23.1631 30.0469 23.1751 30.0469H23.5835C23.5954 30.0469 23.6074 30.0588 23.6074 30.0708V33.2603C23.6074 34.0412 23.1552 34.5552 22.444 34.5552C21.7327 34.5552 21.2805 34.0591 21.2805 33.2603" fill="black"/>
<path d="M24.6766 34.4455V30.0747C24.6766 30.0627 24.6885 30.0508 24.7005 30.0508H25.1089C25.1208 30.0508 25.1328 30.0627 25.1328 30.0747V34.0132C25.1328 34.0132 25.1387 34.0252 25.1447 34.0252H26.6189C26.6369 34.0252 26.6508 34.0431 26.6428 34.0551L26.5193 34.4515C26.5134 34.4695 26.5074 34.4695 26.4954 34.4695H24.6985C24.6865 34.4695 24.6746 34.4575 24.6746 34.4455" fill="black"/>
<path d="M28.1892 33.0211H29.2291C29.2291 33.0211 29.2411 33.0211 29.2411 33.0092L28.7152 30.5568C28.7152 30.5448 28.7032 30.5448 28.7032 30.5568L28.1773 33.0092C28.1773 33.0211 28.1833 33.0211 28.1892 33.0211ZM29.0618 30.0747L30.034 34.4455C30.04 34.4575 30.022 34.4695 30.0101 34.4695H29.5758C29.5638 34.4695 29.5439 34.4575 29.5439 34.4455L29.3327 33.4793C29.3327 33.4674 29.3268 33.4674 29.3208 33.4674H28.0956C28.0956 33.4674 28.0836 33.4674 28.0836 33.4793L27.8725 34.4455C27.8725 34.4575 27.8545 34.4695 27.8406 34.4695H27.4262C27.4143 34.4695 27.3963 34.4575 27.4023 34.4455L28.3745 30.0747C28.3745 30.0627 28.3924 30.0508 28.4064 30.0508H29.0319C29.0439 30.0508 29.0638 30.0627 29.0638 30.0747" fill="black"/>
<path d="M35.0645 32.9961V31.5218C35.0645 30.7548 34.7796 30.4062 34.3274 30.4062C33.8752 30.4062 33.5903 30.7529 33.5903 31.5218V32.9961C33.5903 33.7631 33.8752 34.1117 34.3274 34.1117C34.7796 34.1117 35.0645 33.765 35.0645 32.9961ZM33.1321 32.9702V31.5457C33.1321 30.4998 33.5963 29.96 34.3274 29.96C35.0585 29.96 35.5227 30.4799 35.5227 31.5198V32.9941C35.5227 34.034 35.0585 34.5539 34.3274 34.5539C33.5963 34.5539 33.1321 34.0141 33.1321 32.9682" fill="black"/>
<path d="M38.3337 34.4515L37.0089 30.8297C37.0089 30.8297 36.997 30.8238 36.997 30.8357V34.4455C36.997 34.4575 36.985 34.4695 36.9731 34.4695H36.6145C36.6025 34.4695 36.5906 34.4575 36.5906 34.4455V30.0747C36.5906 30.0627 36.6025 30.0508 36.6145 30.0508H37.1723C37.1842 30.0508 37.1902 30.0508 37.1962 30.0687L38.5648 33.808C38.5648 33.808 38.5768 33.814 38.5768 33.8021V30.0747C38.5768 30.0627 38.5887 30.0508 38.6007 30.0508H38.9593C38.9712 30.0508 38.9832 30.0627 38.9832 30.0747V34.4455C38.9832 34.4575 38.9712 34.4695 38.9593 34.4695H38.3576C38.3457 34.4695 38.3397 34.4695 38.3337 34.4515Z" fill="black"/>
<path d="M40.051 34.4455V30.0747C40.051 30.0627 40.063 30.0508 40.0749 30.0508H41.9336C41.9456 30.0508 41.9575 30.0627 41.9575 30.0747V30.4711C41.9575 30.4831 41.9456 30.495 41.9336 30.495H40.5212C40.5212 30.495 40.5092 30.501 40.5092 30.507V31.9055C40.5092 31.9055 40.5152 31.9175 40.5212 31.9175H41.8719C41.8838 31.9175 41.8958 31.9294 41.8958 31.9414V32.3378C41.8958 32.3498 41.8838 32.3617 41.8719 32.3617H40.5212C40.5212 32.3617 40.5092 32.3677 40.5092 32.3737V34.0093C40.5092 34.0093 40.5152 34.0212 40.5212 34.0212H41.9954C42.0133 34.0212 42.0273 34.0391 42.0193 34.0511L41.8958 34.4475C41.8898 34.4655 41.8838 34.4655 41.8719 34.4655H40.0749C40.063 34.4655 40.051 34.4535 40.051 34.4416" fill="black"/>
<path d="M48.6967 34.4455V30.507C48.6967 30.507 48.6907 30.495 48.6847 30.495H47.8799C47.8679 30.495 47.856 30.4831 47.856 30.4711V30.0747C47.856 30.0627 47.8679 30.0508 47.8799 30.0508H49.9737C49.9856 30.0508 49.9976 30.0627 49.9976 30.0747V30.4711C49.9976 30.4831 49.9856 30.495 49.9737 30.495H49.1688C49.1688 30.495 49.1569 30.501 49.1569 30.507V34.4455C49.1569 34.4575 49.1449 34.4695 49.133 34.4695H48.7246C48.7126 34.4695 48.7006 34.4575 48.7006 34.4455" fill="black"/>
<path d="M50.9343 34.4455V30.0747C50.9343 30.0627 50.9463 30.0508 50.9582 30.0508H52.8169C52.8289 30.0508 52.8408 30.0627 52.8408 30.0747V30.4711C52.8408 30.4831 52.8289 30.495 52.8169 30.495H51.4045C51.4045 30.495 51.3925 30.501 51.3925 30.507V31.9055C51.3925 31.9055 51.3985 31.9175 51.4045 31.9175H52.7552C52.7671 31.9175 52.7791 31.9294 52.7791 31.9414V32.3378C52.7791 32.3498 52.7671 32.3617 52.7552 32.3617H51.4045C51.4045 32.3617 51.3925 32.3677 51.3925 32.3737V34.0093C51.3925 34.0093 51.3985 34.0212 51.4045 34.0212H52.8787C52.8966 34.0212 52.9106 34.0391 52.9026 34.0511L52.7791 34.4475C52.7731 34.4655 52.7671 34.4655 52.7552 34.4655H50.9582C50.9463 34.4655 50.9343 34.4535 50.9343 34.4416" fill="black"/>
<path d="M54.5137 33.0211H55.5536C55.5536 33.0211 55.5656 33.0211 55.5656 33.0092L55.0396 30.5568C55.0396 30.5448 55.0277 30.5448 55.0277 30.5568L54.5017 33.0092C54.5017 33.0211 54.5077 33.0211 54.5137 33.0211ZM55.3863 30.0747L56.3585 34.4455C56.3644 34.4575 56.3465 34.4695 56.3345 34.4695H55.9003C55.8883 34.4695 55.8684 34.4575 55.8684 34.4455L55.6572 33.4793C55.6572 33.4674 55.6512 33.4674 55.6453 33.4674H54.4201C54.4201 33.4674 54.4081 33.4674 54.4081 33.4793L54.1969 34.4455C54.1969 34.4575 54.179 34.4695 54.1651 34.4695H53.7507C53.7387 34.4695 53.7208 34.4575 53.7268 34.4455L54.699 30.0747C54.699 30.0627 54.7169 30.0508 54.7308 30.0508H55.3564C55.3683 30.0508 55.3863 30.0627 55.3863 30.0747Z" fill="black"/>
<path d="M58.5642 34.4455L57.7892 30.6564H57.7773V34.4455C57.7773 34.4575 57.7653 34.4695 57.7534 34.4695H57.345C57.333 34.4695 57.321 34.4575 57.321 34.4455V30.0747C57.321 30.0627 57.333 30.0508 57.345 30.0508H58.1199C58.1319 30.0508 58.1498 30.0627 58.1498 30.0747L58.8371 33.6347C58.8371 33.6467 58.8491 33.6467 58.8491 33.6347L59.5423 30.0747C59.5423 30.0627 59.5603 30.0508 59.5722 30.0508H60.3412C60.3532 30.0508 60.3651 30.0627 60.3651 30.0747V34.4455C60.3651 34.4575 60.3532 34.4695 60.3412 34.4695H59.9328C59.9209 34.4695 59.9089 34.4575 59.9089 34.4455V30.6863H59.8969L59.13 34.4455C59.13 34.4575 59.112 34.4695 59.0981 34.4695H58.5961C58.5841 34.4695 58.5642 34.4575 58.5642 34.4455Z" fill="black"/>
<path d="M44.4135 30.8457L44.0967 30.1823C44.0967 30.1823 44.0848 30.1764 44.0848 30.1883V30.8378C44.0848 30.8497 44.0728 30.8617 44.0609 30.8617H43.9194C43.9075 30.8617 43.8955 30.8497 43.8955 30.8378V30.0708C43.8955 30.0588 43.9075 30.0469 43.9194 30.0469H44.2222C44.2342 30.0469 44.2402 30.0529 44.2461 30.0648L44.531 30.6525C44.531 30.6525 44.537 30.6585 44.543 30.6525L44.8279 30.0648C44.8338 30.0529 44.8398 30.0469 44.8518 30.0469H45.1486C45.1605 30.0469 45.1725 30.0588 45.1725 30.0708V30.8378C45.1725 30.8497 45.1605 30.8617 45.1486 30.8617H45.0072C44.9952 30.8617 44.9832 30.8497 44.9832 30.8378V30.1883C44.9832 30.1764 44.9773 30.1764 44.9713 30.1823L44.6625 30.8457C44.6565 30.8577 44.6505 30.8637 44.6386 30.8637H44.4414C44.4294 30.8637 44.4234 30.8577 44.4175 30.8457M43.1504 30.8398V30.2461C43.1504 30.2461 43.1445 30.2341 43.1385 30.2341H42.8237C42.8118 30.2341 42.7998 30.2222 42.7998 30.2102V30.0748C42.7998 30.0628 42.8118 30.0509 42.8237 30.0509H43.6784C43.6903 30.0509 43.7023 30.0628 43.7023 30.0748V30.2102C43.7023 30.2222 43.6903 30.2341 43.6784 30.2341H43.3616C43.3616 30.2341 43.3496 30.2401 43.3496 30.2461V30.8398C43.3496 30.8517 43.3377 30.8637 43.3257 30.8637H43.1763C43.1644 30.8637 43.1524 30.8517 43.1524 30.8398" fill="black"/>
</svg>
