<svg width="92" height="21" viewBox="0 0 92 21" fill="none" xmlns="http://www.w3.org/2000/svg">
<g clip-path="url(#clip0_280_3944)">
<path d="M31.8347 11.642C31.4504 11.4041 31.2126 11.2577 31.2126 10.7637C31.2126 10.2696 31.4687 10.1415 31.8347 9.88535C32.219 9.50109 32.713 9.15342 32.713 8.01893C32.713 6.40868 32.713 5.53036 32.5849 4.90822C32.0909 3.0418 30.5904 1.66943 28.8338 1.17538C28.2116 1.04729 27.3333 1.04729 25.7048 1.04729H19.4468C18.8246 1.04729 18.4404 1.04729 18.1842 1.17538C17.928 1.30347 17.7999 1.41326 17.6901 1.66943C17.5621 1.92561 17.5621 2.29157 17.5621 2.91371V18.943C17.5621 19.5651 17.5621 19.9494 17.6901 20.1873C17.8182 20.4251 17.9463 20.5715 18.1842 20.6813C18.4404 20.8094 18.8063 20.8094 19.4468 20.8094H25.9427C27.5712 20.8094 28.4495 20.8094 29.0717 20.6813C30.9381 20.1873 32.3288 18.6868 32.8228 16.9485C32.9509 16.3263 32.9509 15.448 32.9509 13.8378C32.9509 12.3739 32.3471 12.0079 31.8347 11.642ZM24.5886 18.3391C23.2162 18.3391 22.2098 17.223 22.2098 15.9787C22.2098 15.3565 22.5941 14.8625 22.96 14.2403C23.3443 13.362 23.9665 12.502 23.9665 10.7637C23.9665 9.15342 23.3443 8.14702 22.8503 7.41508C22.466 6.79294 22.1 6.29889 22.1 5.67675C22.1 4.43247 23.2162 3.31627 24.4788 3.31627C25.8512 3.31627 26.8576 4.43247 26.8576 5.67675C26.8576 6.29889 26.4733 6.79294 26.1073 7.41508C25.6133 8.14702 24.9912 9.15342 24.9912 10.7637C25.0826 12.502 25.7048 13.3803 26.2171 14.2403C26.6014 14.8625 26.9674 15.3565 26.9674 15.9787C26.9674 17.351 25.8512 18.3391 24.5886 18.3391ZM47.4797 2.32817C47.3516 1.81582 47.2235 1.70603 47.0955 1.44985C46.9674 1.32176 46.8393 1.19368 46.6014 1.06559C46.3452 0.9375 46.1073 0.9375 45.595 0.9375H41.5877C41.0936 0.9375 40.8374 0.9375 40.5813 1.06559C40.3251 1.19368 40.197 1.30347 40.0872 1.44985C39.9774 1.59624 39.831 1.83412 39.703 2.32817L33.9573 20.4617H37.7084C38.2025 20.4617 38.4587 20.4617 38.7149 20.3337C38.971 20.2056 39.0991 20.0958 39.2089 19.9494C39.337 19.8213 39.4651 19.5651 39.5932 19.0711L40.4715 16.5825H47.2235L48.1019 19.0711C48.2299 19.5651 48.358 19.8213 48.4861 19.9494C48.6142 20.0775 48.7423 20.1873 48.9802 20.3337C49.2364 20.4617 49.4742 20.4617 49.9866 20.4617H53.6096L47.4797 2.32817ZM41.3315 13.4901L43.7103 6.1708L46.1073 13.4901H41.3315ZM14.5794 16.1068C14.3233 15.9787 13.9573 15.9787 13.3169 15.9787H6.05245C5.66819 15.9787 5.5584 15.9787 5.43031 15.8506C5.30222 15.8506 5.17414 15.7225 5.17414 15.6127V3.0784C5.17414 2.45626 5.17414 2.07199 5.04605 1.83412C4.91796 1.59624 4.66178 1.34006 4.552 1.21197C4.29582 1.08389 3.92985 1.08389 3.28942 1.08389H0.178711V18.5953C0.178711 19.2175 0.178711 19.6017 0.306799 19.8396C0.434887 20.0958 0.562974 20.2239 0.800852 20.3337C1.05703 20.4434 1.42299 20.4617 2.06343 20.4617H15.2016V17.8451C15.2016 17.223 15.2016 16.8387 15.0735 16.6008C14.9454 16.3629 14.8173 16.2348 14.5794 16.1068ZM66.9857 1.21197C66.7295 1.34006 66.6014 1.46815 66.4916 1.70603C66.3635 1.9439 66.3635 2.32817 66.3635 2.95031V12.6484L60.1055 2.07199C59.8493 1.68773 59.8493 1.57794 59.6115 1.44985C59.4834 1.32176 59.3553 1.21197 59.2272 1.21197H56.7203C56.0982 1.21197 55.7139 1.21197 55.4578 1.34006C55.2016 1.46815 55.0735 1.57794 54.9637 1.83412C54.8356 2.07199 54.8356 2.45626 54.8356 3.0784V20.5898H57.7267C58.3489 20.5898 58.7332 20.5898 58.9893 20.4617C59.2455 20.3337 59.3736 20.2239 59.4834 19.9677C59.6115 19.7298 59.6115 19.3456 59.6115 18.7234V8.89724L65.7414 19.4553C65.9976 19.8396 65.9976 19.9494 66.2354 20.0775C66.3635 20.2056 66.4916 20.3337 66.6197 20.3337H69.1266C69.7487 20.3337 70.133 20.3337 70.3891 20.2056C70.6453 20.0775 70.7734 19.9677 70.8832 19.7115C71.0113 19.4736 71.0113 19.0894 71.0113 18.4672V1.08389H68.1385C67.498 1.08389 67.2418 1.08389 66.9857 1.21197ZM84.7533 11.8799C84.369 11.4956 84.2592 11.2577 84.1311 11.0015V10.3794C84.2592 10.1232 84.3873 9.88535 84.7533 9.50109L91.7615 1.04729H86.5099C86.3818 1.04729 86.2537 1.17538 86.1256 1.17538L85.6316 1.66943L80.38 8.00063L79.8859 8.49468C79.7579 8.62277 79.6298 8.62277 79.5017 8.62277H78.1293V3.0784C78.1293 2.45626 78.1293 2.07199 78.0012 1.83412C77.8731 1.59624 77.745 1.44985 77.5072 1.34006C77.251 1.21197 76.885 1.21197 76.2446 1.21197H73.3718V18.7051C73.3718 19.3273 73.3718 19.7115 73.4998 19.9494C73.6279 20.1873 73.756 20.3337 73.9939 20.4434C74.2501 20.5715 74.616 20.5715 75.2565 20.5715H78.1293V12.6301H79.5017C79.6298 12.6301 79.7579 12.7582 79.8859 12.7582L80.38 13.2522L85.7597 19.7115L86.2537 20.2056C86.3818 20.3337 86.5099 20.3337 86.638 20.3337H91.7615L84.7533 11.8799Z" fill="black"/>
</g>
<defs>
<clipPath id="clip0_280_3944">
<rect width="91.9141" height="20" fill="white" transform="translate(0.0869141 0.808594)"/>
</clipPath>
</defs>
</svg>
