<svg width="135" height="21" viewBox="0 0 135 21" fill="none" xmlns="http://www.w3.org/2000/svg">
<g clip-path="url(#clip0_280_3936)">
<path fill-rule="evenodd" clip-rule="evenodd" d="M5.41641 19.8927H22.8223C23.8568 19.8927 24.644 18.663 24.0483 17.7697L15.3564 2.64696C14.7214 1.55269 13.5172 0.808594 12.138 0.808594C10.6929 0.808594 9.42303 1.64023 8.81 2.86581L2.19799 14.3337C0.851529 16.7372 2.68727 19.8927 5.41641 19.8927Z" fill="#0043FF"/>
<path fill-rule="evenodd" clip-rule="evenodd" d="M19.1217 6.39125C18.0926 4.61854 18.7057 2.34245 20.4791 1.31384C22.2525 0.285225 24.5295 0.898018 25.5585 2.67074L32.2801 14.3138C33.3091 16.0865 32.696 18.3626 30.9225 19.3911C29.1491 20.4198 26.8721 19.807 25.8431 18.0343L19.1217 6.39125Z" fill="#0043FF"/>
<path d="M122.34 5.65481C123.355 4.70811 125.136 4.2573 127.729 4.2573H133.795V0.808594H126.625C124.91 0.808594 123.468 0.988924 122.34 1.34957C121.235 1.71022 120.266 2.27373 119.431 3.06265C118.552 3.9192 117.853 4.9786 117.357 6.24086C116.861 7.52568 116.612 8.9232 116.612 10.3883C116.612 11.7858 116.861 13.1383 117.357 14.378C117.853 15.6177 118.552 16.6997 119.431 17.5562C120.243 18.3452 121.212 18.9087 122.295 19.2694C123.4 19.6299 124.866 19.8103 126.625 19.8103H133.795V16.4067H127.729C126.354 16.4067 125.407 16.3616 124.866 16.2489C124.302 16.1362 123.784 15.9558 123.355 15.6854C122.498 15.1444 121.844 14.4457 121.416 13.5665C121.009 12.71 120.807 11.628 120.807 10.3658C120.807 8.2019 121.326 6.60152 122.34 5.65481Z" fill="black"/>
<path d="M69.5518 19.8563H86.4639V16.5203H73.6783V11.7642H84.8403V8.60852H73.6783V4.19058H86.4639V0.832031H69.5518V19.8563Z" fill="black"/>
<path d="M90.6816 0.832031L98.5966 10.3441L90.6816 19.8563H95.8004L102.047 12.3277V8.38312L95.8004 0.832031H90.6816Z" fill="black"/>
<path d="M109.894 0.832031L103.648 8.38312V12.3277L109.894 19.8563H115.013L107.075 10.3441L115.013 0.832031H109.894Z" fill="black"/>
<path d="M52.9789 10.2089L45.3797 0.832031H41.4561V19.8563H45.5826V7.16594L52.1671 15.0552H53.7682L60.3525 7.09832V19.8563H64.4791V0.832031H60.6006L52.9789 10.2089Z" fill="black"/>
</g>
<defs>
<clipPath id="clip0_280_3936">
<rect width="133.333" height="20" fill="white" transform="translate(0.753906 0.808594)"/>
</clipPath>
</defs>
</svg>
