<svg width="44" height="44" viewBox="0 0 44 44" fill="none" xmlns="http://www.w3.org/2000/svg">
<path fill-rule="evenodd" clip-rule="evenodd" d="M30.9164 2.4715C33.0919 2.4719 34.5448 3.91833 34.5455 6.08703C34.5473 11.3709 34.5461 16.6548 34.5461 21.9387C34.5461 27.1972 34.5464 32.4558 34.5458 37.7143C34.5455 39.9658 33.1159 41.4012 30.8734 41.4014C24.9559 41.402 19.0385 41.402 13.1211 41.4014C10.895 41.4012 9.45368 39.9656 9.45357 37.7473C9.45301 27.2048 9.45295 16.6624 9.45357 6.12C9.4537 3.92054 10.8966 2.47187 13.0881 2.4715C19.0309 2.47047 24.9737 2.4704 30.9164 2.4715ZM22.0342 34.5588C21.2868 34.5588 20.5392 34.5545 19.7919 34.5602C19.0889 34.5655 18.5785 35.0516 18.5807 35.7012C18.5829 36.3508 19.0926 36.8335 19.7985 36.8359C21.2681 36.8409 22.7377 36.8412 24.2072 36.8358C24.9127 36.8331 25.4201 36.3464 25.4184 35.6944C25.4166 35.0426 24.9088 34.5651 24.2004 34.56C23.4784 34.5548 22.7563 34.5588 22.0342 34.5588ZM15.3547 23.9069L21.6122 27.5196V20.2942L15.3547 16.6815V23.9069ZM22.3875 20.2942V27.5196L28.6448 23.9069V16.6815L22.3875 20.2942ZM15.7424 16.0659L21.9998 19.6787L28.2571 16.0659L21.9998 12.4532L15.7424 16.0659ZM21.9914 7.03624C21.3732 7.04079 20.8569 7.56447 20.8616 8.18222C20.8664 8.80047 21.3902 9.3171 22.0075 9.31246C22.6257 9.30778 23.1418 8.78431 23.1374 8.16618C23.133 7.54779 22.6096 7.03171 21.9914 7.03624Z" fill="#4AB3FF"/>
</svg>
