<svg width="44" height="44" viewBox="0 0 44 44" fill="none" xmlns="http://www.w3.org/2000/svg">
<path d="M36.3034 25.3567C35.0667 25.3567 33.8295 25.3789 32.5933 25.3515C30.6881 25.3093 29.2286 23.7529 29.2755 21.8523C29.32 20.0466 30.7976 18.5799 32.6602 18.5604C35.1713 18.5341 37.6829 18.5489 40.1943 18.5563C40.9087 18.5584 41.3848 19.0387 41.3882 19.7454C41.3954 21.22 41.3947 22.6945 41.3886 24.1691C41.3856 24.8846 40.922 25.3533 40.203 25.3585C38.9032 25.3679 37.6033 25.3612 36.3034 25.3612V25.3567ZM32.6752 23.0863C33.3027 23.0887 33.8122 22.5885 33.8149 21.9675C33.8175 21.3553 33.2988 20.8304 32.687 20.8261C32.0782 20.8219 31.5512 21.3444 31.5476 21.9558C31.5439 22.5767 32.0499 23.0839 32.6752 23.0863Z" fill="#4AB3FF"/>
<path fill-rule="evenodd" clip-rule="evenodd" d="M5.79361 8.09184C15.4596 8.08778 25.1256 8.08807 34.7916 8.09155C36.7176 8.09224 37.9803 9.37096 37.9824 11.3001C37.984 12.8248 37.9827 14.3496 37.9827 15.8744V16.2875C37.8144 16.2875 37.6799 16.2875 37.5455 16.2875C35.9303 16.2875 34.3149 16.2803 32.6997 16.2891C29.4618 16.3067 26.9367 18.9062 27.0051 22.1416C27.067 25.0714 29.5206 27.5548 32.4541 27.6155C34.1442 27.6504 35.8357 27.6257 37.5265 27.6277C37.6626 27.6279 37.7987 27.6277 37.9735 27.6277C37.9735 29.4632 38.0233 31.2412 37.9584 33.0149C37.903 34.5308 36.5821 35.7285 35.0633 35.7805C34.9751 35.7835 34.8867 35.7834 34.7984 35.7835C25.1324 35.7836 15.4664 35.7842 5.80041 35.7829C4.14279 35.7826 2.92119 34.7794 2.65447 33.2011C2.62115 33.004 2.61887 32.7998 2.61882 32.5989C2.61712 25.4916 2.61654 18.3843 2.61808 11.277C2.6185 9.37532 3.88912 8.09267 5.79361 8.09184ZM6.87194 26.4003L13.9971 30.514V22.2867L6.87194 18.173V26.4003ZM14.8799 22.2867V30.514L22.0049 26.4003V18.173L14.8799 22.2867ZM7.31342 17.4722L14.4384 21.5858L21.5634 17.4722L14.4384 13.3585L7.31342 17.4722Z" fill="#4AB3FF"/>
</svg>
