<svg width="44" height="44" viewBox="0 0 44 44" fill="none" xmlns="http://www.w3.org/2000/svg">
<path d="M7.23208 23.2982C3.94988 22.6 2.9347 19.8722 3.21414 18.0203C3.58759 15.5452 5.59003 13.8521 8.04969 13.9121C10.3589 13.9685 12.3268 15.8145 12.5552 18.1726C12.77 20.3902 11.3412 22.7307 8.65241 23.2546C10.8831 23.4521 12.9596 23.2629 15.0608 21.7111C17.2872 20.0669 18.4524 17.8349 18.5211 15.0563C18.5717 13.0131 20.1141 11.4617 22.0984 11.4831C24.0699 11.5045 25.5864 13.1077 25.5721 15.1554C25.5243 21.9971 20.8633 28.0065 14.1788 29.8255C13.8475 29.9157 13.7323 30.0334 13.7339 30.3942C13.7495 33.8135 13.7414 37.2329 13.7396 40.6523C13.739 41.6811 13.3163 42.1073 12.2975 42.1074C9.33531 42.1077 6.37317 42.1078 3.41103 42.1073C2.44216 42.1072 2.00083 41.6668 2.00071 40.7C2.00027 36.9152 1.99924 33.1304 2.00095 29.3455C2.00235 26.2456 3.99753 23.8895 7.05513 23.3702C7.09128 23.364 7.12482 23.3425 7.23208 23.2982Z" fill="#4AB3FF"/>
<path d="M36.9311 23.3335C37.1942 23.3894 37.4605 23.4337 37.72 23.5031C40.304 24.195 42.0876 26.496 42.0944 29.177C42.1043 33.0533 42.0983 36.9296 42.0961 40.8059C42.0956 41.6367 41.6172 42.1063 40.776 42.1068C37.7616 42.1086 34.7472 42.108 31.7327 42.1072C30.8141 42.107 30.3598 41.6597 30.3588 40.7411C30.3547 37.2824 30.3503 33.8238 30.3608 30.3651C30.3618 30.0517 30.2832 29.9194 29.9677 29.8348C27.7381 29.2376 25.7821 28.1195 24.019 26.6467C23.9297 26.5721 23.848 26.4886 23.7402 26.3882C25.3398 24.4811 26.4963 22.3423 27.2129 19.8962C29.3548 22.5984 32.1396 23.5895 35.4998 23.2655C34.1613 22.9985 33.0983 22.3578 32.3508 21.2602C31.5948 20.15 31.3354 18.9197 31.6355 17.6054C32.1642 15.2897 34.2478 13.751 36.5848 13.9192C38.8427 14.0816 40.7052 15.9227 40.9086 18.2031C41.089 20.2251 39.8729 22.6918 36.9311 23.3335Z" fill="#4AB3FF"/>
<path d="M18.5408 7.76073C18.4873 8.3532 18.2979 8.7167 17.8692 8.92596C17.4117 9.14927 16.9549 9.10903 16.5968 8.76826C15.7485 7.96093 14.9171 7.13401 14.1123 6.28339C13.6786 5.82506 13.7401 5.12222 14.1777 4.69291C14.6159 4.26295 15.3107 4.21675 15.7697 4.65358C16.6086 5.45196 17.426 6.2743 18.2233 7.1142C18.4056 7.30632 18.4701 7.61041 18.5408 7.76073Z" fill="#4AB3FF"/>
<path d="M30.2873 5.66032C30.2062 5.81934 30.1211 6.13926 29.9214 6.35095C29.1623 7.15537 28.3748 7.93382 27.5806 8.70398C27.0916 9.17811 26.3883 9.16898 25.9274 8.72058C25.457 8.26299 25.4441 7.53797 25.9296 7.03925C26.7014 6.24647 27.4843 5.46406 28.278 4.69326C28.6467 4.33522 29.0985 4.2519 29.5767 4.46415C30.0246 4.6629 30.2336 5.0332 30.2873 5.66032Z" fill="#4AB3FF"/>
<path d="M20.8737 4.31637C20.8737 3.93863 20.8653 3.56066 20.8755 3.1832C20.8937 2.51676 21.3987 2.01138 22.0387 2.0059C22.6784 2.00043 23.2062 2.50125 23.2196 3.16314C23.2357 3.95737 23.2358 4.75242 23.2196 5.54664C23.2061 6.20831 22.6779 6.71014 22.0392 6.70488C21.3992 6.6996 20.8936 6.19447 20.8757 5.52768C20.8649 5.12418 20.8737 4.72016 20.8737 4.31637Z" fill="#4AB3FF"/>
</svg>
