<svg width="45" height="46" viewBox="0 0 45 46" fill="none" xmlns="http://www.w3.org/2000/svg">
<path d="M17.56 8.14745C18.922 6.77197 20.7353 6.01364 22.6683 6.01364C24.6013 6.01364 26.4155 6.77197 27.7767 8.14745C27.9341 8.30637 28.1371 8.38543 28.34 8.38543C28.543 8.38543 28.7637 8.29911 28.9226 8.12728C29.2336 7.79087 29.2251 7.2552 28.9041 6.93009C27.2373 5.24725 25.0227 4.32031 22.6683 4.32031C20.314 4.32031 18.0994 5.24725 16.4334 6.93009C16.1116 7.2544 16.1031 7.79168 16.4141 8.12728C16.7251 8.46288 17.239 8.47337 17.56 8.14745Z" fill="#0094FF"/>
<path d="M26.7221 11.096C26.9343 11.096 27.1458 11.0097 27.3047 10.8379C27.6157 10.5014 27.6072 9.96578 27.2855 9.64066C26.0516 8.39507 24.4126 7.70854 22.6717 7.70854C20.9309 7.70854 19.2919 8.39426 18.0588 9.64066C17.737 9.96578 17.7285 10.5023 18.0395 10.8379C18.3489 11.1743 18.8644 11.1839 19.1838 10.858C20.1137 9.91898 21.3514 9.40187 22.6717 9.40187C23.992 9.40187 25.229 9.91818 26.1604 10.858C26.317 11.0169 26.5192 11.096 26.7221 11.096Z" fill="#0094FF"/>
<path d="M20.0755 12.1806C19.7545 12.5057 19.746 13.0422 20.057 13.3778C20.3687 13.7142 20.8811 13.7231 21.2021 13.398C21.9792 12.6122 23.3488 12.6122 24.1259 13.398C24.2833 13.5569 24.4863 13.636 24.6892 13.636C24.8922 13.636 25.1121 13.5497 25.2718 13.3778C25.5828 13.0414 25.5743 12.5057 25.2533 12.1806C24.5596 11.4812 23.6405 11.0956 22.6644 11.0956C21.6882 11.0956 20.7677 11.4812 20.0755 12.1806Z" fill="#0094FF"/>
<path d="M37.2618 15.737H8.08705C6.0542 15.737 4.40625 17.4607 4.40625 19.586C4.40625 21.7112 6.0542 23.4341 8.08705 23.4341H37.2618C39.2947 23.4341 40.9426 21.7104 40.9426 19.5852C40.9426 17.4599 39.2947 15.737 37.2618 15.737Z" fill="#0094FF"/>
<path d="M37.2618 24.8608H8.08705C6.0542 24.8608 4.40625 26.5844 4.40625 28.7097C4.40625 30.8349 6.0542 32.5578 8.08705 32.5578H37.2618C39.2947 32.5578 40.9426 30.8341 40.9426 28.7089C40.9426 26.5836 39.2947 24.8608 37.2618 24.8608Z" fill="#0094FF"/>
<path d="M37.2618 33.9845H8.08705C6.0542 33.9845 4.40625 35.7081 4.40625 37.8334C4.40625 39.9586 6.0542 41.6815 8.08705 41.6815H37.2618C39.2947 41.6815 40.9426 39.9578 40.9426 37.8326C40.9426 35.7073 39.2947 33.9845 37.2618 33.9845Z" fill="#0094FF"/>
<path d="M36.3174 20.3912C36.744 20.3912 37.0898 20.0297 37.0898 19.5837C37.0898 19.1377 36.744 18.7762 36.3174 18.7762C35.8908 18.7762 35.5449 19.1377 35.5449 19.5837C35.5449 20.0297 35.8908 20.3912 36.3174 20.3912Z" fill="#030D43"/>
<path d="M33.2291 20.3912C33.6557 20.3912 34.0015 20.0297 34.0015 19.5837C34.0015 19.1377 33.6557 18.7762 33.2291 18.7762C32.8025 18.7762 32.4567 19.1377 32.4567 19.5837C32.4567 20.0297 32.8025 20.3912 33.2291 20.3912Z" fill="#030D43"/>
<path d="M30.1409 20.3912C30.5675 20.3912 30.9133 20.0297 30.9133 19.5837C30.9133 19.1377 30.5675 18.7762 30.1409 18.7762C29.7143 18.7762 29.3684 19.1377 29.3684 19.5837C29.3684 20.0297 29.7143 20.3912 30.1409 20.3912Z" fill="#030D43"/>
</svg>
